<svg width="1180" height="258" viewBox="0 0 1180 258" fill="none" xmlns="http://www.w3.org/2000/svg">
<g clip-path="url(#clip0)">
<path d="M242.561 238.166C244.911 234.482 263.963 207.319 253.594 203.227C236.804 202.929 220.409 203.905 204.977 195.77C184.62 185.055 169.494 170.429 154.365 153.216C150.281 148.58 150.366 142.702 154.365 138.046C178.52 108.082 207.255 86.9138 237.481 61.2106C251.095 49.1168 228.415 27.9447 211.782 26.4289C204.224 26.4289 196.669 30.9641 189.098 33.9875C161.887 50.6205 145.255 76.3277 124.397 98.5681C122.063 101.406 118.737 102.172 115.552 101.571C112.364 100.979 109.316 99.0196 107.55 96.4034C95.904 79.1053 85.2977 60.6381 78.0012 41.0342C74.0949 30.565 70.4386 19.9588 67.8102 9.08247C63.9079 -7.20377 57.9901 1.66497 51.1934 10.441C32.6174 34.4108 25.5667 52.8014 41.8812 81.2297C53.8983 102.176 66.8306 122.195 81.6736 141.247C84.4391 144.803 86.3983 150.067 83.3466 154.244C76.6225 163.455 68.3342 174.972 58.7076 185.522C55.513 189.049 52.1511 192.42 48.6335 195.625C34.8628 210.891 6.13608 209.379 1.59689 222.993C-4.44192 235.086 16.7181 256.242 37.0921 256.972C40.8507 256.661 44.5522 255.857 48.1014 254.582C73.2161 245.729 94.0335 215.624 108.731 196.463C112.69 191.291 120.462 188.65 125.57 194.29C144.964 215.692 167.434 244.846 196.592 252.973C215.249 258.169 231.616 255.384 242.541 238.154" fill="#FF1717"/>
<path d="M23.8615 222.969C28.4007 209.355 57.1274 210.875 70.8981 195.6C74.4013 192.424 77.7512 189.021 80.9722 185.498C90.5908 174.948 98.8871 163.431 105.603 154.22C108.663 150.047 106.696 144.779 103.934 141.223C89.0992 122.171 76.1468 102.156 64.1377 81.2057C49.0286 54.8776 53.9628 37.1643 69.5275 15.6495C68.9157 13.4616 68.3378 11.2643 67.794 9.05843C63.8918 -7.22782 57.9739 1.64093 51.1772 10.417C32.6012 34.3868 25.5506 52.7773 41.8651 81.2057C53.8822 102.152 66.8145 122.171 81.6575 141.223C84.423 144.779 86.3821 150.043 83.3305 154.22C76.6064 163.431 68.3181 174.948 58.6915 185.498C55.4968 189.025 52.135 192.396 48.6174 195.6C34.8466 210.867 6.11996 209.355 1.58078 222.969C-4.45804 235.062 16.702 256.218 37.0759 256.948C40.8012 256.633 44.4702 255.839 47.9925 254.586C32.0086 248.619 18.9474 232.789 23.8615 222.969Z" fill="#FF1717"/>
</g>
<g filter="url(#filter0_d)">
<path d="M307.637 181.046H263.027V155.031H272.559V98.3901H263.027V72.3745H314.512L354.043 129.171V98.3901H345.215V72.3745H389.043V98.3901H379.59V182.453H343.809L298.027 116.75V155.031H307.637V181.046ZM439.98 137.218H462.09C462.194 135.656 462.246 134.77 462.246 134.562C462.246 130.447 461.204 127.036 459.121 124.328C457.038 121.671 454.277 120.343 450.84 120.343C447.298 120.343 444.59 121.802 442.715 124.718C440.84 127.687 439.902 131.333 439.902 135.656C439.902 136.229 439.928 136.75 439.98 137.218ZM464.98 157.062L497.402 161.046C495.944 164.432 493.913 167.479 491.309 170.187C488.704 172.843 485.527 175.161 481.777 177.14C474.225 181.203 465.189 183.234 454.668 183.234C437.012 183.234 423.73 179.562 414.824 172.218C405.918 164.927 401.465 155.369 401.465 143.546C401.465 131.984 405.866 122.348 414.668 114.64C423.366 106.932 435.163 103.078 450.059 103.078C464.382 103.078 476.048 106.723 485.059 114.015C493.913 121.255 498.626 132.27 499.199 147.062H439.512C439.668 159.354 444.251 165.5 453.262 165.5C458.678 165.5 462.585 162.687 464.98 157.062ZM573.574 153.39V176.671C571.022 178.39 567.324 179.901 562.48 181.203C557.376 182.557 552.48 183.234 547.793 183.234C541.908 183.234 536.855 182.27 532.637 180.343C528.314 178.364 525.059 175.708 522.871 172.375C521.673 170.447 520.788 168.703 520.215 167.14C519.642 165.526 519.225 163.729 518.965 161.75C518.6 158.312 518.418 151.671 518.418 141.828V129.093H508.73V105.265H518.418V93.6245L557.715 74.9526V105.265H573.574V129.093H557.715V143.781C557.715 148.572 558.158 151.776 559.043 153.39C559.876 155.005 561.647 155.812 564.355 155.812C566.908 155.812 569.98 155.005 573.574 153.39ZM645.293 181.984H614.199L590.996 129.093H582.871V105.265H633.965V129.093H626.387L635.293 154.328L653.965 105.265H683.105L700.137 154.328L709.824 129.093H702.559V105.265H739.512V129.093H732.09L710.059 181.984H678.887L661.543 143.156L645.293 181.984ZM786.309 142.921C786.309 155.005 790.632 161.046 799.277 161.046C808.444 161.046 813.027 154.953 813.027 142.765C813.027 137.192 811.908 132.869 809.668 129.796C807.376 126.723 804.147 125.187 799.98 125.187C795.866 125.187 792.559 126.697 790.059 129.718C787.559 132.739 786.309 137.14 786.309 142.921ZM746.543 142.765C746.543 131.619 751.23 122.218 760.605 114.562C769.98 106.906 782.637 103.078 798.574 103.078C814.616 103.078 827.663 106.776 837.715 114.171C847.767 121.567 852.793 131.203 852.793 143.078C852.793 154.536 848.001 164.093 838.418 171.75C828.835 179.406 816.178 183.234 800.449 183.234C783.47 183.234 770.241 179.406 760.762 171.75C751.283 164.145 746.543 154.484 746.543 142.765ZM925.918 181.046H864.824V157.218H875.137V129.093H864.824V105.265H911.855V124.25C913.626 119.51 916.361 115.421 920.059 111.984C923.6 108.598 927.194 106.385 930.84 105.343C934.329 104.354 939.46 103.859 946.23 103.859V137.218C945.345 137.166 944.251 137.14 942.949 137.14C934.928 137.14 928.965 137.947 925.059 139.562C920.996 141.229 918.236 143.416 916.777 146.125C915.267 148.937 914.486 152.635 914.434 157.218H925.918V181.046ZM999.277 181.046H950.293V157.218H959.98V96.2026H950.137V72.3745H999.277V148.078L1023.96 123.937H1010.14V105.265H1058.57V125.812H1049.75L1035.53 139.718L1052.64 157.218H1058.81V181.046H1030.61L999.277 148.078V181.046ZM1116 181.046H1077.01V152.609H1116V181.046Z" fill="white"/>
</g>
<defs>
<filter id="filter0_d" x="253.027" y="65.3745" width="872.969" height="130.859" filterUnits="userSpaceOnUse" color-interpolation-filters="sRGB">
<feFlood flood-opacity="0" result="BackgroundImageFix"/>
<feColorMatrix in="SourceAlpha" type="matrix" values="0 0 0 0 0 0 0 0 0 0 0 0 0 0 0 0 0 0 127 0"/>
<feOffset dy="3"/>
<feGaussianBlur stdDeviation="5"/>
<feColorMatrix type="matrix" values="0 0 0 0 0 0 0 0 0 0 0 0 0 0 0 0 0 0 0.25 0"/>
<feBlend mode="normal" in2="BackgroundImageFix" result="effect1_dropShadow"/>
<feBlend mode="normal" in="SourceGraphic" in2="effect1_dropShadow" result="shape"/>
</filter>
<clipPath id="clip0">
<rect width="258" height="258" fill="white"/>
</clipPath>
</defs>
</svg>
